<svg viewBox="0 0 83 25" xmlns="http://www.w3.org/2000/svg">
    <path d="M80.1395 2.00488H79.8551V0.289666H79.2388V0.046875H80.748V0.289666H80.1316V2.00488H80.1395Z" fill="currentColor"/>
    <path d="M81.9412 2.00488L81.4829 0.830076C81.4276 0.681268 81.3881 0.548156 81.3486 0.422844C81.3565 0.571652 81.3644 0.728283 81.3644 0.853595V2.00488H81.0957V0.046875H81.4434L81.9333 1.30003C81.9965 1.47233 82.0044 1.488 82.0518 1.64464C82.1071 1.47233 82.1308 1.40185 82.1703 1.30787L82.6602 0.046875H83V2.00488H82.7314V0.853595C82.7314 0.720451 82.7393 0.579485 82.7472 0.422844C82.6998 0.579485 82.6681 0.689123 82.6049 0.853595L82.1546 2.00488H81.9412Z" fill="currentColor"/>
    <path d="M14.0177 0.0471191L8.91319 13.2832L3.80865 0.0471191H0L7.00885 18.2174L4.39337 25H8.20202L17.8263 0.0471191H14.0177Z" fill="currentColor"/>
    <path d="M28.8728 0C23.7604 0 19.6199 4.10399 19.6199 9.17131C19.6199 14.2386 23.7604 18.3426 28.8728 18.3426C33.9852 18.3426 38.1257 14.2386 38.1257 9.17131C38.1257 4.10399 33.9852 0 28.8728 0ZM28.8728 14.7712C25.7516 14.7712 23.2152 12.2649 23.2152 9.16347C23.2152 6.06982 25.7437 3.55577 28.8728 3.55577C31.994 3.55577 34.5305 6.06199 34.5305 9.16347C34.5305 12.2649 31.994 14.7712 28.8728 14.7712Z" fill="currentColor"/>
    <path d="M53.9375 0.0471191L48.833 13.2832L43.7363 0.0471191H39.9277L46.9287 18.2174L44.3211 25H48.1218L57.7462 0.0471191H53.9375Z" fill="currentColor"/>
    <path d="M68.8001 0C63.6877 0 59.5471 4.10399 59.5471 9.17131C59.5471 14.2386 63.6877 18.3426 68.8001 18.3426C73.9125 18.3426 78.053 14.2386 78.053 9.17131C78.053 4.10399 73.9046 0 68.8001 0ZM68.8001 14.7712C65.6789 14.7712 63.1424 12.2649 63.1424 9.16347C63.1424 6.06982 65.671 3.55577 68.8001 3.55577C71.9213 3.55577 74.4577 6.06199 74.4577 9.16347C74.4498 12.2649 71.9213 14.7712 68.8001 14.7712Z" fill="currentColor"/>
</svg>