<svg xmlns="http://www.w3.org/2000/svg">
	<symbol id="account" fill="none" viewBox="0 0 18 19">
		<path fill-rule="evenodd" clip-rule="evenodd" d="M6 4.5a3 3 0 116 0 3 3 0 01-6 0zm3-4a4 4 0 100 8 4 4 0 000-8zm5.58 12.15c1.12.82 1.83 2.24 1.91 4.85H1.51c.08-2.6.79-4.03 1.9-4.85C4.66 11.75 6.5 11.5 9 11.5s4.35.26 5.58 1.15zM9 10.5c-2.5 0-4.65.24-6.17 1.35C1.27 12.98.5 14.93.5 18v.5h17V18c0-3.07-.77-5.02-2.33-6.15-1.52-1.1-3.67-1.35-6.17-1.35z" fill="currentColor" />
	</symbol>

	<symbol id="cart" viewBox="0 0 40 40" fill="none">
		<path fill="currentColor" fill-rule="evenodd" d="M20.5 6.5a4.75 4.75 0 00-4.75 4.75v.56h-3.16l-.77 11.6a5 5 0 004.99 5.34h7.38a5 5 0 004.99-5.33l-.77-11.6h-3.16v-.57A4.75 4.75 0 0020.5 6.5zm3.75 5.31v-.56a3.75 3.75 0 10-7.5 0v.56h7.5zm-7.5 1h7.5v.56a3.75 3.75 0 11-7.5 0v-.56zm-1 0v.56a4.75 4.75 0 109.5 0v-.56h2.22l.71 10.67a4 4 0 01-3.99 4.27h-7.38a4 4 0 01-4-4.27l.72-10.67h2.22z"/>
	</symbol>

	<symbol id="logo" viewBox="0 0 83 25">
		<path d="M80.1395 2.00488H79.8551V0.289666H79.2388V0.046875H80.748V0.289666H80.1316V2.00488H80.1395Z" fill="currentColor"/>
		<path d="M81.9412 2.00488L81.4829 0.830076C81.4276 0.681268 81.3881 0.548156 81.3486 0.422844C81.3565 0.571652 81.3644 0.728283 81.3644 0.853595V2.00488H81.0957V0.046875H81.4434L81.9333 1.30003C81.9965 1.47233 82.0044 1.488 82.0518 1.64464C82.1071 1.47233 82.1308 1.40185 82.1703 1.30787L82.6602 0.046875H83V2.00488H82.7314V0.853595C82.7314 0.720451 82.7393 0.579485 82.7472 0.422844C82.6998 0.579485 82.6681 0.689123 82.6049 0.853595L82.1546 2.00488H81.9412Z" fill="currentColor"/>
		<path d="M14.0177 0.0471191L8.91319 13.2832L3.80865 0.0471191H0L7.00885 18.2174L4.39337 25H8.20202L17.8263 0.0471191H14.0177Z" fill="currentColor"/>
		<path d="M28.8728 0C23.7604 0 19.6199 4.10399 19.6199 9.17131C19.6199 14.2386 23.7604 18.3426 28.8728 18.3426C33.9852 18.3426 38.1257 14.2386 38.1257 9.17131C38.1257 4.10399 33.9852 0 28.8728 0ZM28.8728 14.7712C25.7516 14.7712 23.2152 12.2649 23.2152 9.16347C23.2152 6.06982 25.7437 3.55577 28.8728 3.55577C31.994 3.55577 34.5305 6.06199 34.5305 9.16347C34.5305 12.2649 31.994 14.7712 28.8728 14.7712Z" fill="currentColor"/>
		<path d="M53.9375 0.0471191L48.833 13.2832L43.7363 0.0471191H39.9277L46.9287 18.2174L44.3211 25H48.1218L57.7462 0.0471191H53.9375Z" fill="currentColor"/>
		<path d="M68.8001 0C63.6877 0 59.5471 4.10399 59.5471 9.17131C59.5471 14.2386 63.6877 18.3426 68.8001 18.3426C73.9125 18.3426 78.053 14.2386 78.053 9.17131C78.053 4.10399 73.9046 0 68.8001 0ZM68.8001 14.7712C65.6789 14.7712 63.1424 12.2649 63.1424 9.16347C63.1424 6.06982 65.671 3.55577 68.8001 3.55577C71.9213 3.55577 74.4577 6.06199 74.4577 9.16347C74.4498 12.2649 71.9213 14.7712 68.8001 14.7712Z" fill="currentColor"/>
	</symbol>

	<symbol id="search" viewBox="0 0 20 20">
		<path fill-rule="evenodd" clip-rule="evenodd" d="M9 2C5.13401 2 2 5.13401 2 9C2 12.866 5.13401 16 9 16C12.866 16 16 12.866 16 9C16 5.13401 12.866 2 9 2ZM0 9C0 4.02944 4.02944 0 9 0C13.9706 0 18 4.02944 18 9C18 13.9706 13.9706 18 9 18C4.02944 18 0 13.9706 0 9Z" fill="currentColor"/>
		<path fill-rule="evenodd" clip-rule="evenodd" d="M13.9428 13.9428C14.3333 13.5523 14.9665 13.5523 15.357 13.9428L19.707 18.2928C20.0975 18.6833 20.0975 19.3165 19.707 19.707C19.3165 20.0975 18.6833 20.0975 18.2928 19.707L13.9428 15.357C13.5523 14.9665 13.5523 14.3333 13.9428 13.9428Z" fill="currentColor"/>
	</symbol>

	<symbol id="button" viewBox="0 0 50 50" fill="none" stroke="currentColor">
		<circle cx="25" cy="25" r="24"/>
		<polyline points="23,20, 28,25 23,30"/>
	</symbol>

	<symbol id="facebook" fill="none" viewBox="0 0 11 20">
		<path fill="currentColor" d="M11 0H8a5 5 0 00-5 5v3H0v4h3v8h4v-8h3l1-4H7V5a1 1 0 011-1h3V0z" />
	</symbol>

	<symbol id="twitter" fill="none" viewBox="0 0 22 18">
		<path fill="currentColor" d="M22 .01a10.9 10.9 0 01-3.14 1.53 4.48 4.48 0 00-7.86 3v1a10.66 10.66 0 01-9-4.53s-4 9 5 13a11.64 11.64 0 01-7 2c9 5 20 0 20-11.5 0-.278-.028-.556-.08-.83A7.72 7.72 0 0022 .01z" />
	</symbol>

	<symbol id="linkedin" fill="none" viewBox="0 0 20 19">
		<path fill="currentColor" fill-rule="evenodd" clip-rule="evenodd" d="M4 2a2 2 0 11-4 0 2 2 0 014 0zm10 4a6 6 0 016 6v7h-4v-7a2 2 0 00-4 0v7H8v-7a6 6 0 016-6zM4 19V7H0v12h4z" />
	</symbol>
</svg>
